<svg xmlns="http://www.w3.org/2000/svg" viewBox="0 0 64 64">
    <path fill="#00595a"
          d="m59.427 19.32-8.651-.621c-1.523-2.75-3.679-3.957-3.679-3.957a11.17 11.17 0 0 0-15.184 4.418l-2.687 4.892L7.105 11.02c.419 10.987 5.86 20.43 14.532 26.85L11.616 55.448s24.253-1.502 34.5-15.731c5.457-7.587 6.106-11.275 6.114-14.97z"/>
    <path fill="#468e8e"
          d="M21.432 37.537c-6.139-4.243-10.836-10.583-13.08-18.298-.796-2.735-1.238-5.486-1.25-8.219L48.8 35.58l-2.684 4.138a25.24 25.24 0 0 1-3.998 4.355 33.22 33.22 0 0 1-20.539-6.436z"/>
    <path fill="#327c7c"
          d="M50.783 31.654 8.551 19.945C11.8 30.45 19.61 38.19 29.648 42.145z"/>
    <path fill="#1d6a6b"
          d="m21.438 37.669.087.063c5.568 4.188 12.259 7.043 18.657 7.803a24.35 24.35 0 0 0 5.933-5.817c3.78-5.254 5.252-8.638 5.748-11.46l-39.665-.343c2.317 3.678 5.524 7.016 9.24 9.754z"/>
</svg>
