<svg xmlns="http://www.w3.org/2000/svg"
     viewBox="0 0 256 64">
    <style>
        @media (prefers-color-scheme: dark) {
        .c1 {fill: #1d6a6b}
        .c2 {fill: #327c7c}
        .c3 {fill: #468e8e}
        .c4 {fill: #59a0a1}
        .t {fill: white}
        }
    </style>
    <title>LaTeXBuddy</title>
    <g class="t">
        <path
            d="M146.381 53.795V18.896h8.357c.807 0 1.662.095 2.517.238a8.31 8.31 0 0 1 4.368 2.279 9.876 9.876 0 0 1 1.424 2.042 10.636 10.636 0 0 1 .76 2.374c.095.854.19 1.709.19 2.516a15.669 15.669 0 0 1-.143 2.137 7.36 7.36 0 0 1-3.56 5.128 9.259 9.259 0 0 1 2.183 1.33 7.027 7.027 0 0 1 2.564 4.225 15.621 15.621 0 0 1 0 5.318 9.781 9.781 0 0 1-.95 2.564 7.597 7.597 0 0 1-1.709 2.184 10.018 10.018 0 0 1-4.89 2.327 17.995 17.995 0 0 1-2.754.237zm5.27-20.322h3.087a3.798 3.798 0 0 0 1.757-.427 2.944 2.944 0 0 0 1.377-1.14 5.08 5.08 0 0 0 .665-1.662 7.787 7.787 0 0 0 .19-1.804 7.787 7.787 0 0 0-.19-1.804 5.08 5.08 0 0 0-.665-1.662 3.609 3.609 0 0 0-1.377-1.14 4.51 4.51 0 0 0-1.757-.38h-3.086zm0 15.764h3.087a5.65 5.65 0 0 0 3.94-1.52 5.27 5.27 0 0 0 1.046-1.899 8.642 8.642 0 0 0 0-4.368 5.698 5.698 0 0 0-1.045-1.9 4.13 4.13 0 0 0-1.757-1.186 6.98 6.98 0 0 0-2.184-.333h-3.086zm22.505 4.938a7.122 7.122 0 0 1-2.231-.38 4.843 4.843 0 0 1-1.9-1.14 5.698 5.698 0 0 1-1.377-1.804 11.158 11.158 0 0 1-1.234-4.32 17.093 17.093 0 0 1-.143-2.232V29.105h5.27v15.194l.096 1.234a4.748 4.748 0 0 0 .237 1.187 3.039 3.039 0 0 0 .475 1.14 3.514 3.514 0 0 0 .76.95 3.276 3.276 0 0 0 2.231.807 3.704 3.704 0 0 0 1.235-.19 3.371 3.371 0 0 0 1.044-.618 7.407 7.407 0 0 0 .76-.95 6.315 6.315 0 0 0 .475-1.139l.237-1.187.048-1.234V29.105h5.27v24.69h-5.27v-3.893a7.834 7.834 0 0 1-.95 1.756 6.078 6.078 0 0 1-3.086 2.28 8.736 8.737 0 0 1-1.947.237zm20.844 0a7.075 7.075 0 0 1-2.231-.333 5.888 5.888 0 0 1-1.994-1.14 9.164 9.164 0 0 1-2.849-6.124 18.375 18.375 0 0 1-.142-2.28v-5.697a19.705 19.705 0 0 1 .57-4.558 10.54 10.54 0 0 1 .949-2.137 6.457 6.457 0 0 1 1.472-1.757 5.793 5.793 0 0 1 1.994-1.092 7.075 7.075 0 0 1 2.232-.332c.664 0 1.33.095 1.946.237a6.02 6.02 0 0 1 1.757.855 7.787 7.787 0 0 1 2.327 3.181V18.896h5.27v34.899h-5.27v-3.893a7.834 7.834 0 0 1-.95 1.756 6.315 6.315 0 0 1-3.134 2.28 8.736 8.737 0 0 1-1.946.237zm2.185-4.558a3.704 3.704 0 0 0 1.234-.19 3.371 3.371 0 0 0 1.045-.618 3.181 3.181 0 0 0 .807-.95 6.315 6.315 0 0 0 .475-1.139l.237-1.187.048-1.234V38.6l-.048-1.234-.237-1.235-.475-1.14a5.033 5.033 0 0 0-.807-.95 4.463 4.463 0 0 0-1.045-.569 4.036 4.036 0 0 0-3.039.238 3.656 3.656 0 0 0-1.424 1.234 5.698 5.698 0 0 0-.712 1.757 8.594 8.594 0 0 0-.19 1.9v5.697c0 .617.047 1.282.19 1.899a5.413 5.413 0 0 0 .712 1.71 3.324 3.324 0 0 0 1.424 1.234 3.54 3.54 0 0 0 1.805.475zm18.708 4.558a7.075 7.075 0 0 1-2.232-.333 5.888 5.888 0 0 1-1.994-1.14 9.164 9.164 0 0 1-2.849-6.124 18.375 18.375 0 0 1-.142-2.28v-5.697a19.705 19.705 0 0 1 .57-4.558 10.54 10.54 0 0 1 .949-2.137 6.457 6.457 0 0 1 1.472-1.757 5.793 5.793 0 0 1 1.994-1.092 7.075 7.075 0 0 1 2.232-.332c.664 0 1.33.095 1.946.237a6.02 6.02 0 0 1 1.757.855 7.787 7.787 0 0 1 2.327 3.181V18.896h5.27v34.899h-5.27v-3.893a7.834 7.834 0 0 1-.95 1.756 6.315 6.315 0 0 1-3.134 2.28 8.736 8.737 0 0 1-1.946.237zm2.184-4.558a3.704 3.704 0 0 0 1.234-.19 3.371 3.371 0 0 0 1.045-.618 3.181 3.181 0 0 0 .807-.95 6.315 6.315 0 0 0 .475-1.139l.237-1.187.048-1.234V38.6l-.048-1.234-.237-1.235-.475-1.14a5.033 5.033 0 0 0-.807-.95 4.463 4.463 0 0 0-1.045-.569 4.036 4.036 0 0 0-3.039.238 3.656 3.656 0 0 0-1.424 1.234 5.698 5.698 0 0 0-.712 1.757 8.594 8.594 0 0 0-.19 1.9v5.697c0 .617.047 1.282.19 1.899a5.413 5.413 0 0 0 .712 1.71 3.324 3.324 0 0 0 1.424 1.234 3.54 3.54 0 0 0 1.805.475zm15.479 14.386.997-3.418.95-3.466.854-3.182-6.98-24.832h5.46l4.274 17.995 4.084-17.995h5.46l-9.639 34.898zM72.001 53.795V18.896h5.318v30.34h11.823v4.559z"/>
        <path
            d="m80.273 45.614 5.204-25.671h4.471l5.204 25.671h-3.981l-1.048-5.728h-4.82l-1.048 5.728zm9.256-9.081L88.062 28.5l-.14-1.013-.21-.978a9.57 9.57 0 0 0-.174.978l-.175 1.013-1.466 8.033zm10.889 17.262v-30.34h-6.98v-4.559h19.278v4.559h-6.98v30.34z"/>
        <path
            d="M108.633 60.717V25.818h17.758v4.559h-12.487V40.3h9.78v4.558h-9.78v11.3h12.487v4.559z"/>
        <path
            d="m124.21 53.795 7.693-17.473-7.692-17.426h5.745l4.558 11.159 4.558-11.159h5.746l-7.692 17.473 7.692 17.426h-5.746l-4.558-11.158-4.558 11.158z"/>
    </g>
    <path class="c1" fill="#00595a"
          d="m59.52 19.032-8.655-.58c-1.535-2.743-3.697-3.938-3.697-3.938a11.17 11.17 0 0 0-15.162 4.491l-2.664 4.905L7.158 10.985c.473 10.985 5.96 20.401 14.663 26.779L11.885 55.39s24.245-1.619 34.422-15.897c5.421-7.614 6.052-11.305 6.042-15z"/>
    <path class="c4" fill="#468e8e"
          d="M21.614 37.433c-6.16-4.214-10.887-10.531-13.17-18.235-.808-2.73-1.264-5.48-1.289-8.212l41.816 24.356-2.664 4.152a25.24 25.24 0 0 1-3.978 4.373 33.219 33.219 0 0 1-20.569-6.336z"/>
    <path class="c3" fill="#327c7c"
          d="M50.936 31.406 8.648 19.902C11.948 30.39 19.795 38.092 29.852 42z"/>
    <path class="c2" fill="#1d6a6b"
          d="m21.62 37.564.088.063C27.296 41.787 34 44.61 40.4 45.34a24.35 24.35 0 0 0 5.906-5.846c3.753-5.273 5.21-8.664 5.692-11.487l-39.666-.152c2.335 3.667 5.558 6.99 9.287 9.71z"/>
</svg>
