<svg viewBox="0 0 1080 1080" xmlns="http://www.w3.org/2000/svg" xml:space="preserve" style="fill-rule:evenodd;clip-rule:evenodd;stroke-linejoin:round;stroke-miterlimit:2"><path style="fill:none" d="M0 0h1080v1080H0z"/><path d="M26.525 189.515.207 279.748c-1.323 4.536 3.975 8.083 7.665 5.131l45.209-35.978-26.556-59.386z" style="fill:#005a5b;fill-rule:nonzero" transform="matrix(-1.70204 0 0 1.70204 921.507 104.278)"/><path d="M395.545.558 211.417 95.703v10.259l74.229 161.739 5.192 2.874L402.221 6.736c1.76-4.168-2.656-8.255-6.676-6.178z" style="fill:#00bdbb;fill-rule:nonzero" transform="matrix(-1.70204 0 0 1.70204 921.507 104.278)"/><path d="m386.677 43.557 15.544-36.82c1.76-4.168-2.657-8.255-6.676-6.178L211.417 95.703v10.259l17.22 37.52 158.04-99.925z" style="fill:#009694;fill-rule:nonzero" transform="matrix(-1.70204 0 0 1.70204 921.507 104.278)"/><path d="m290.838 270.576-9.313-2.96-175.303 88.167-7.562 10.244 244.05 65.967-51.872-161.418z" style="fill:#008281;fill-rule:nonzero" transform="matrix(-1.70204 0 0 1.70204 921.507 104.278)"/><path d="m301.437 303.559-10.599-32.983-9.313-2.96-175.303 88.167-7.562 10.244 51.105 13.814 151.672-76.282z" style="fill:#006e6e;fill-rule:nonzero" transform="matrix(-1.70204 0 0 1.70204 921.507 104.278)"/><path d="M128.529 191.316a4.837 4.837 0 0 0-3.766-1.801H26.525L98.66 366.027l62.076-135.162-32.207-39.549z" style="fill:#008281;fill-rule:nonzero" transform="matrix(-1.70204 0 0 1.70204 921.507 104.278)"/><path d="M67.168 189.515H26.525L98.66 366.027l21.506-46.827-52.998-129.685z" style="fill:#006e6e;fill-rule:nonzero" transform="matrix(-1.70204 0 0 1.70204 921.507 104.278)"/><path d="m447.458 504.461-156.62-233.885 60.469 213.08a4.833 4.833 0 0 0 3.333 3.332l87.479 24.817c4.33 1.228 7.843-3.604 5.339-7.344zM211.417 95.703 98.66 366.027l192.178-95.451-79.421-174.873z" style="fill:#009694;fill-rule:nonzero" transform="matrix(-1.70204 0 0 1.70204 921.507 104.278)"/><path d="m232.14 141.332-20.723-45.629L98.66 366.027l50.145-24.906 83.335-199.789z" style="fill:#008281;fill-rule:nonzero" transform="matrix(-1.70204 0 0 1.70204 921.507 104.278)"/></svg>