<svg viewBox="0 0 3599 1000" xmlns="http://www.w3.org/2000/svg"><path d="m796.383 401.14 39.134 134.172c1.967 6.745-5.91 12.02-11.398 7.63l-67.224-53.498z" fill="#005a5b"/><path d="m247.663 120.168 273.792 141.477v15.254L411.079 517.4l-7.72 4.273-165.623-392.318c-2.617-6.197 3.95-12.275 9.927-9.186z" fill="#00bdbb"/><path d="m260.85 184.106-23.114-54.75c-2.617-6.198 3.95-12.275 9.927-9.187l273.792 141.476v15.254l-25.606 55.791z" fill="#009694"/><path d="m403.359 521.674 13.848-4.402 260.67 131.101 11.244 15.233-362.894 98.09z" fill="#008281"/><path d="m387.598 570.718 15.76-49.044 13.849-4.402 260.67 131.101 11.244 15.233-75.992 20.54z" fill="#006e6e"/><path d="M644.707 403.817a7.193 7.193 0 0 1 5.6-2.678h146.076L689.121 663.606l-92.305-200.981z" fill="#008281"/><path d="M735.948 401.14h60.435L689.121 663.605l-31.979-69.63z" fill="#006e6e"/><path d="m170.47 869.451 232.889-347.777-89.916 316.841a7.187 7.187 0 0 1-4.956 4.955L178.41 880.372c-6.439 1.826-11.662-5.36-7.94-10.92zm350.985-607.806 167.666 401.96-285.762-141.931z" fill="#009694"/><path d="m490.64 329.493 30.815-67.848 167.666 401.96-74.564-37.034z" fill="#008281"/><path d="M2033.65 705.79c0-12.114 8.078-17.884 23.654-17.884h15.577V405.8h-15.577c-15.576 0-23.653-5.769-23.653-17.884 0-11.538 7.5-17.307 23.076-17.307h130.381c30 0 54.23 9.23 72.113 27.114 17.884 18.461 27.115 39.23 27.115 62.306 0 17.884-5.77 33.46-16.73 47.306-11.538 14.423-26.538 24.807-45.576 31.153 22.5 5.192 40.96 16.153 54.23 32.884s20.191 35.19 20.191 55.383c0 24.806-9.23 46.729-27.115 66.344-17.884 20.191-42.114 29.999-72.69 29.999h-141.919c-15.576 0-23.076-5.77-23.076-17.307zm79.037-17.884h73.267c23.076 0 40.96-6.345 53.653-19.037s19.037-27.115 19.037-43.268-5.769-31.73-16.73-46.153-27.691-21.922-49.614-21.922h-79.613zm0-165.571h59.421c24.807 0 43.845-6.346 55.96-19.615s18.461-27.115 18.461-42.114c0-13.269-4.615-25.384-14.422-37.499-9.808-11.538-25.384-17.307-47.307-17.307h-72.113zm182.879-29.999c0-12.115 8.077-17.884 23.654-17.884h42.114c9.807 0 16.153 1.73 19.038 4.615 2.884 3.461 4.038 9.807 4.038 19.038v155.764c0 6.346.577 10.961 1.154 13.846.577 3.461 1.73 7.5 4.615 11.538 2.308 4.038 6.923 7.5 13.846 9.23 6.346 1.731 15 2.885 25.96 2.885 5.77 0 12.116-.577 18.462-2.308 6.346-1.154 13.269-3.461 20.768-7.5 7.5-3.46 13.846-9.23 19.038-17.884 4.615-8.653 6.923-19.037 6.923-31.152V509.643h-25.96c-15.577 0-23.077-5.77-23.077-17.307 0-12.115 8.077-17.884 23.653-17.884h42.114c9.808 0 16.154 1.73 19.038 4.615 2.308 3.461 4.039 9.807 4.039 19.038v189.801h25.96c15.577 0 23.077 5.77 23.077 17.308 0 12.115-8.077 17.884-23.653 17.884h-42.115c-4.615 0-8.076 0-10.384-.577-2.884-.577-5.192-2.308-8.077-5.192s-4.615-6.923-4.615-12.692c-19.038 14.422-42.114 21.922-68.652 21.922-54.806 0-81.92-23.076-81.92-69.228V509.643h-25.961c-15.577 0-23.077-5.77-23.077-17.307zm282.108 106.727c0-36.345 11.538-66.344 35.191-91.15s51.345-36.923 83.075-36.923c25.383 0 47.883 8.654 67.498 25.961V405.8h-25.961c-15.577 0-23.076-5.769-23.076-17.307 0-12.115 8.076-17.884 23.653-17.884h42.114c9.807 0 16.153 1.73 19.038 4.615 2.307 3.461 4.038 9.807 4.038 19.038v293.644h25.961c15.576 0 23.076 5.77 23.076 17.308 0 12.115-8.076 17.884-23.653 17.884h-42.114c-10.961 0-17.307-1.731-19.615-5.77s-3.461-11.537-3.461-23.076c-20.769 21.346-45 32.307-72.69 32.307-30.577 0-57.114-12.692-79.614-37.499-22.499-24.23-33.46-54.806-33.46-89.997zm39.806 0c0 25.384 7.5 47.306 22.5 65.19 14.422 17.884 32.306 27.115 53.075 27.115 20.192 0 37.499-8.654 50.768-26.538 12.692-17.307 19.615-35.19 19.615-53.652v-40.96c0-16.73-6.346-31.153-19.038-44.422s-28.269-19.615-46.153-19.615c-21.345 0-39.806 8.654-55.96 26.538-16.73 17.884-24.807 39.806-24.807 66.344zm228.455 0c0-36.345 11.538-66.344 35.192-91.15s51.344-36.923 83.074-36.923c25.384 0 47.883 8.654 67.498 25.961V405.8h-25.96c-15.577 0-23.077-5.769-23.077-17.307 0-12.115 8.077-17.884 23.653-17.884h42.114c9.808 0 16.154 1.73 19.038 4.615 2.308 3.461 4.039 9.807 4.039 19.038v293.644h25.96c15.577 0 23.077 5.77 23.077 17.308 0 12.115-8.077 17.884-23.653 17.884h-42.115c-10.96 0-17.307-1.731-19.614-5.77s-3.462-11.537-3.462-23.076c-20.768 21.346-44.999 32.307-72.69 32.307-30.576 0-57.114-12.692-79.613-37.499-22.5-24.23-33.46-54.806-33.46-89.997zm39.807 0c0 25.384 7.5 47.306 22.5 65.19 14.422 17.884 32.306 27.115 53.075 27.115 20.191 0 37.498-8.654 50.767-26.538 12.692-17.307 19.615-35.19 19.615-53.652v-40.96c0-16.73-6.346-31.153-19.038-44.422s-28.268-19.615-46.152-19.615c-21.346 0-39.807 8.654-55.96 26.538-16.73 17.884-24.807 39.806-24.807 66.344z"/><path d="M3108.428 492.336c0-5.192 1.73-9.808 4.615-12.692s5.192-4.039 8.077-4.615c2.307-.577 5.769-.577 10.384-.577h67.498c4.615 0 8.077 0 10.961.577 2.308.576 5.192 1.73 8.077 4.615s4.038 7.5 4.038 12.692c0 11.538-7.5 17.307-23.076 17.307h-14.423l53.653 138.457c7.5 20.192 11.538 31.153 12.115 34.037h.577c2.884-13.268 8.076-29.422 15-49.613l41.536-122.881h-16.153c-4.615 0-8.077 0-10.384-.577-2.885-.577-5.192-2.308-8.077-5.192s-4.615-6.923-4.615-12.115c0-11.538 7.5-17.307 23.076-17.307h67.498c4.615 0 8.077 0 10.961.577 2.308.576 5.193 1.73 8.077 4.615s4.038 7.5 4.038 12.692c0 11.538-7.5 17.307-23.076 17.307h-17.307l-89.42 262.492c-1.731 4.038-2.885 8.076-4.039 11.538-1.73 3.461-5.192 10.384-10.384 20.191s-10.961 17.884-16.73 24.23c-6.346 6.346-13.846 12.692-23.654 18.461-9.807 5.192-20.191 8.077-31.153 8.077-13.845 0-25.384-4.615-34.037-13.846-9.23-9.807-13.846-20.768-13.846-33.46 0-7.5 2.308-13.846 6.923-18.461s10.961-6.923 18.461-6.923 13.269 2.308 17.884 6.923 6.923 10.384 6.923 17.884c0 2.307 0 4.615-.577 6.346s-1.154 3.461-1.73 4.615l-.578 1.73c19.615-1.153 35.192-12.114 46.153-33.46 2.308-4.038 5.192-11.538 9.23-21.922 3.462-10.384 6.346-19.615 9.231-27.692 2.308-8.653 3.461-12.691 3.461-13.268 0-1.154-.576-3.462-2.307-7.5l-81.92-205.955h-17.885c-15.576 0-23.076-5.77-23.076-17.307zM1040.124 621.79c0-5.192 1.731-9.807 4.616-12.691s5.192-4.039 8.076-4.616c2.308-.577 5.77-.577 10.385-.577h21.345V321.8h-21.345c-15.577 0-23.077-5.769-23.077-17.307 0-5.192 1.731-9.23 4.616-12.692 2.884-2.885 5.192-4.038 8.076-4.615 2.308-.577 5.77-.577 10.385-.577h93.459c15.576 0 23.653 5.769 23.653 17.884 0 11.538-8.077 17.307-23.653 17.307h-32.307v282.106h139.034V564.1c0-5.192 0-9.23.577-12.115s2.308-5.192 5.77-8.077c2.884-2.307 7.499-3.461 13.845-3.461 8.654 0 14.423 1.73 16.73 5.769 1.731 4.038 2.885 10.384 2.885 17.884v51.345c0 9.23-1.73 15.576-4.615 18.46-2.885 3.462-9.23 5.193-18.461 5.193H1063.2c-15.577 0-23.077-5.77-23.077-17.307z"/><path d="M1183.117 526.97c0-5.516 2.546-9.76 7.215-12.306 1.697-.425 7.638-.849 18.248-.849l51.349-222.37c1.273-5.093 2.97-8.912 5.092-11.458 2.122-2.122 4.668-3.395 6.79-4.244 2.122-.424 5.941-.424 11.034-.424s8.912 0 11.458.424c2.122.849 4.668 2.122 6.79 4.668s3.395 6.366 4.668 11.458l51.349 221.946c10.61 0 16.55.424 18.248 1.273 4.668 2.122 7.214 5.941 7.214 11.883 0 8.487-5.941 12.73-18.248 12.73h-43.286c-3.82 0-6.365 0-8.487-.424s-3.82-1.273-5.941-3.395-3.395-5.092-3.395-8.911c0-4.244 1.273-7.215 3.395-9.337s4.243-2.97 7.214-3.395c2.546-.424 6.79-.424 13.155-.424l-9.76-44.134h-68.748l-9.761 44.134c6.366 0 10.61 0 13.58.424 2.546.425 5.092 1.274 7.214 3.395s2.97 5.093 2.97 9.337c0 3.819-.848 6.79-2.97 8.911s-4.243 2.971-6.365 3.395-4.668.425-8.488.425h-43.286c-12.307 0-18.248-4.244-18.248-12.731zm71.72-83.176h56.016l-28.008-133.253zm90.952-91.418v-42.114c0-9.807 1.73-16.153 4.615-19.038s9.23-4.615 19.038-4.615h225.57c9.808 0 16.154 1.73 19.038 4.615 2.885 3.461 4.039 9.807 4.039 19.038v42.114c0 5.192 0 8.654-.577 11.538s-2.308 5.192-5.192 8.077c-3.462 2.884-8.077 4.038-14.423 4.038-8.654 0-14.423-2.308-16.153-6.346-2.308-4.038-3.462-9.807-3.462-17.307V321.8h-76.152v282.106h30c4.615 0 8.076 0 10.96.577 2.308.577 5.193 1.731 8.077 4.616s4.039 7.5 4.039 12.692c0 11.538-7.5 17.307-23.076 17.307h-99.805c-4.616 0-8.077 0-10.385-.577-2.884-.577-5.192-2.308-8.076-5.192s-4.616-6.923-4.616-12.115c0-11.538 7.5-17.308 23.077-17.308h29.999V321.8h-76.729v30.576c0 5.192 0 8.654-.577 11.538s-2.307 5.192-5.192 8.077c-3.461 2.884-8.076 4.038-14.422 4.038-8.654 0-14.423-2.308-16.154-6.346-2.307-4.038-3.461-9.807-3.461-17.307z"/><path d="M1562.129 705.898c0-12.115 8.076-17.884 23.653-17.884h17.307V405.908h-17.307c-15.577 0-23.653-5.77-23.653-17.884 0-11.538 8.076-17.307 23.653-17.307h215.186c9.807 0 16.153 1.73 19.038 4.615 2.884 3.461 4.038 9.807 4.038 19.038v42.114c0 5.192 0 8.653-.577 11.538s-2.307 5.192-5.192 8.077c-3.461 2.884-8.076 4.038-14.422 4.038-8.654 0-14.423-2.308-16.154-6.346-2.307-4.038-3.461-9.807-3.461-17.307v-30.576h-141.342V523.02h75.574c0-9.808.577-16.154 1.154-20.192.577-3.461 2.308-6.346 5.192-9.23 2.885-2.308 7.5-3.462 13.846-3.462 8.654 0 14.423 1.73 16.73 5.77 1.731 4.037 2.885 10.383 2.885 17.883v53.652c0 5.192 0 8.654-.577 11.538s-2.308 5.193-5.192 8.077-7.5 4.038-13.846 4.038c-9.23 0-15-2.307-16.73-6.346-2.308-4.038-3.462-13.268-3.462-26.537h-75.574v129.803h154.034v-39.806c0-5.192 0-8.654.577-11.538s2.307-5.192 5.769-8.077c2.884-2.884 7.5-4.038 13.845-4.038 8.654 0 14.423 1.73 16.73 5.769 1.731 4.038 2.885 10.384 2.885 17.884v51.344c0 9.23-1.73 15.577-4.615 18.461-2.885 3.462-9.23 5.193-18.461 5.193h-227.878c-15.577 0-23.653-5.77-23.653-17.308z"/><path d="M1779.046 621.79c0-5.192 1.153-9.807 4.615-12.691 2.884-2.885 5.192-4.039 8.076-4.616 2.308-.577 5.77-.577 10.385-.577h12.692l76.728-152.302-69.228-129.804h-13.27c-15.576 0-23.652-5.769-23.652-17.884 0-11.538 8.076-17.307 23.653-17.307h59.998c15.576 0 23.076 5.769 23.076 17.307 0 5.192-1.154 9.23-4.038 12.115s-5.77 4.615-8.654 5.192-6.923.577-12.115.577l44.422 84.228 40.96-84.228c-5.769 0-10.384 0-13.268-.577s-5.77-2.308-8.654-5.192-4.615-6.923-4.615-12.115c0-11.538 7.5-17.307 23.076-17.307h59.998c15.577 0 23.653 5.769 23.653 17.884 0 11.538-8.076 17.307-23.653 17.307h-12.692l-65.19 129.227 81.344 152.88h13.269c15.576 0 23.653 5.769 23.653 17.884 0 11.538-8.077 17.307-23.653 17.307h-59.999c-15.576 0-23.076-5.77-23.076-17.307 0-5.193 1.73-9.808 4.615-12.692s5.77-4.039 8.654-4.616 6.923-.577 12.692-.577l-57.114-111.92-53.075 111.92c5.769 0 10.384 0 13.269.577s6.345 1.731 9.23 4.616 4.615 7.5 4.615 12.692c0 11.538-8.076 17.307-23.653 17.307h-59.998c-15.577 0-23.076-5.77-23.076-17.307z"/></svg>
