<?xml version="1.0" encoding="UTF-8" standalone="no"?>
<!DOCTYPE svg PUBLIC "-//W3C//DTD SVG 1.1//EN" "http://www.w3.org/Graphics/SVG/1.1/DTD/svg11.dtd">
<svg width="100%" height="100%" viewBox="0 0 3939 3280" version="1.1" xmlns="http://www.w3.org/2000/svg" xmlns:xlink="http://www.w3.org/1999/xlink" xml:space="preserve" xmlns:serif="http://www.serif.com/" style="fill-rule:evenodd;clip-rule:evenodd;stroke-linejoin:round;stroke-miterlimit:2;">
    <g id="Logomark" transform="matrix(1,0,0,1,340,0)">
        <rect x="0" y="0" width="1080" height="1080" style="fill:none;"/>
        <g id="Bird-logo" serif:id="Bird logo" transform="matrix(-1.70204,0,0,1.70204,921.507,104.278)">
            <path d="M26.525,189.515L0.207,279.748C-1.116,284.284 4.182,287.831 7.872,284.879L53.081,248.901L26.525,189.515Z" style="fill:rgb(0,90,91);fill-rule:nonzero;"/>
            <path d="M395.545,0.558L211.417,95.703L211.417,105.962L285.646,267.701L290.838,270.575L402.221,6.736C403.981,2.568 399.565,-1.519 395.545,0.558Z" style="fill:rgb(0,189,187);fill-rule:nonzero;"/>
            <path d="M386.677,43.557L402.221,6.737C403.981,2.569 399.564,-1.518 395.545,0.559L211.417,95.703L211.417,105.962L228.637,143.482L386.677,43.557Z" style="fill:rgb(0,150,148);fill-rule:nonzero;"/>
            <path d="M290.838,270.576L281.525,267.616L106.222,355.783L98.66,366.027L342.71,431.994L290.838,270.576Z" style="fill:rgb(0,130,129);fill-rule:nonzero;"/>
            <path d="M301.437,303.559L290.838,270.576L281.525,267.616L106.222,355.783L98.66,366.027L149.765,379.841L301.437,303.559Z" style="fill:rgb(0,110,110);fill-rule:nonzero;"/>
            <path d="M128.529,191.316C127.611,190.177 126.226,189.515 124.763,189.515L26.525,189.515L98.66,366.027L160.736,230.865L128.529,191.316Z" style="fill:rgb(0,130,129);fill-rule:nonzero;"/>
            <path d="M67.168,189.515L26.525,189.515L98.66,366.027L120.166,319.2L67.168,189.515Z" style="fill:rgb(0,110,110);fill-rule:nonzero;"/>
            <path d="M447.458,504.461L290.838,270.576L351.307,483.656C351.765,485.27 353.026,486.531 354.64,486.988L442.119,511.805C446.449,513.033 449.962,508.201 447.458,504.461Z" style="fill:rgb(0,150,148);fill-rule:nonzero;"/>
            <path d="M211.417,95.703L98.66,366.027L290.838,270.576L211.417,95.703Z" style="fill:rgb(0,150,148);fill-rule:nonzero;"/>
            <path d="M232.14,141.332L211.417,95.703L98.66,366.027L148.805,341.121L232.14,141.332Z" style="fill:rgb(0,130,129);fill-rule:nonzero;"/>
        </g>
    </g>
    <g id="Logotype" transform="matrix(1.8963,0,0,0.925926,-1897.63,1180)">
        <rect x="1180" y="0" width="1080" height="1080" style="fill:none;"/>
        <g id="LaTeXBuddy-logo" serif:id="LaTeXBuddy logo" transform="matrix(-0.78181,0,0,1.60115,1583.26,130.107)">
            <path d="M26.525,189.515L0.207,279.748C-1.116,284.284 4.182,287.831 7.872,284.879L53.081,248.901L26.525,189.515Z" style="fill:rgb(0,90,91);fill-rule:nonzero;"/>
            <path d="M395.545,0.558L211.417,95.703L211.417,105.962L285.646,267.701L290.838,270.575L402.221,6.736C403.981,2.568 399.565,-1.519 395.545,0.558Z" style="fill:rgb(0,189,187);fill-rule:nonzero;"/>
            <path d="M386.677,43.557L402.221,6.737C403.981,2.569 399.564,-1.518 395.545,0.559L211.417,95.703L211.417,105.962L228.637,143.482L386.677,43.557Z" style="fill:rgb(0,150,148);fill-rule:nonzero;"/>
            <path d="M290.838,270.576L281.525,267.616L106.222,355.783L98.66,366.027L342.71,431.994L290.838,270.576Z" style="fill:rgb(0,130,129);fill-rule:nonzero;"/>
            <path d="M301.437,303.559L290.838,270.576L281.525,267.616L106.222,355.783L98.66,366.027L149.765,379.841L301.437,303.559Z" style="fill:rgb(0,110,110);fill-rule:nonzero;"/>
            <path d="M128.529,191.316C127.611,190.177 126.226,189.515 124.763,189.515L26.525,189.515L98.66,366.027L160.736,230.865L128.529,191.316Z" style="fill:rgb(0,130,129);fill-rule:nonzero;"/>
            <path d="M67.168,189.515L26.525,189.515L98.66,366.027L120.166,319.2L67.168,189.515Z" style="fill:rgb(0,110,110);fill-rule:nonzero;"/>
            <path d="M447.458,504.461L290.838,270.576L351.307,483.656C351.765,485.27 353.026,486.531 354.64,486.988L442.119,511.805C446.449,513.033 449.962,508.201 447.458,504.461Z" style="fill:rgb(0,150,148);fill-rule:nonzero;"/>
            <path d="M211.417,95.703L98.66,366.027L290.838,270.576L211.417,95.703Z" style="fill:rgb(0,150,148);fill-rule:nonzero;"/>
            <path d="M232.14,141.332L211.417,95.703L98.66,366.027L148.805,341.121L232.14,141.332Z" style="fill:rgb(0,130,129);fill-rule:nonzero;"/>
        </g>
        <g id="Type" transform="matrix(0.527344,0,0,1.08,1005.98,-1309.22)">
            <g transform="matrix(16.6431,0,0,16.6431,-39736.6,-11053.8)">
                <text x="2469.34px" y="783.386px" style="font-family:'CMUTypewriter-Regular', 'CMU Typewriter Text', monospace;font-weight:500;font-size:24px;">B<tspan x="2480.5px 2491.66px 2502.82px 2513.98px " y="783.386px 783.386px 783.386px 783.386px ">uddy</tspan></text>
            </g>
            <g transform="matrix(16.6431,0,0,16.6431,-39893.9,-11356.1)">
                <text x="2469.34px" y="783.386px" style="font-family:'CMUTypewriter-Regular', 'CMU Typewriter Text', monospace;font-weight:500;font-size:24px;">L</text>
                <text x="2475.58px" y="779.251px" style="font-family:'CMUTypewriter-Regular', 'CMU Typewriter Text', monospace;font-weight:500;font-size:17.654px;">A</text>
                <text x="2482.2px" y="783.386px" style="font-family:'CMUTypewriter-Regular', 'CMU Typewriter Text', monospace;font-weight:500;font-size:24px;">T</text>
                <text x="2491.2px" y="786.885px" style="font-family:'CMUTypewriter-Regular', 'CMU Typewriter Text', monospace;font-weight:500;font-size:24px;">E</text>
                <text x="2500.2px" y="783.386px" style="font-family:'CMUTypewriter-Regular', 'CMU Typewriter Text', monospace;font-weight:500;font-size:24px;">X</text>
            </g>
        </g>
    </g>
    <g id="Logotype-long" serif:id="Logotype long" transform="matrix(1.75707,0,0,1,-4031.58,2280)">
        <rect x="2488" y="0" width="2048" height="1000" style="fill:none;"/>
        <g id="LaTeXBuddy-logo1" serif:id="LaTeXBuddy logo" transform="matrix(-0.968683,0,0,1.70204,2979.17,64.2778)">
            <path d="M26.525,189.515L0.207,279.748C-1.116,284.284 4.182,287.831 7.872,284.879L53.081,248.901L26.525,189.515Z" style="fill:rgb(0,90,91);fill-rule:nonzero;"/>
            <path d="M395.545,0.558L211.417,95.703L211.417,105.962L285.646,267.701L290.838,270.575L402.221,6.736C403.981,2.568 399.565,-1.519 395.545,0.558Z" style="fill:rgb(0,189,187);fill-rule:nonzero;"/>
            <path d="M386.677,43.557L402.221,6.737C403.981,2.569 399.564,-1.518 395.545,0.559L211.417,95.703L211.417,105.962L228.637,143.482L386.677,43.557Z" style="fill:rgb(0,150,148);fill-rule:nonzero;"/>
            <path d="M290.838,270.576L281.525,267.616L106.222,355.783L98.66,366.027L342.71,431.994L290.838,270.576Z" style="fill:rgb(0,130,129);fill-rule:nonzero;"/>
            <path d="M301.437,303.559L290.838,270.576L281.525,267.616L106.222,355.783L98.66,366.027L149.765,379.841L301.437,303.559Z" style="fill:rgb(0,110,110);fill-rule:nonzero;"/>
            <path d="M128.529,191.316C127.611,190.177 126.226,189.515 124.763,189.515L26.525,189.515L98.66,366.027L160.736,230.865L128.529,191.316Z" style="fill:rgb(0,130,129);fill-rule:nonzero;"/>
            <path d="M67.168,189.515L26.525,189.515L98.66,366.027L120.166,319.2L67.168,189.515Z" style="fill:rgb(0,110,110);fill-rule:nonzero;"/>
            <path d="M447.458,504.461L290.838,270.576L351.307,483.656C351.765,485.27 353.026,486.531 354.64,486.988L442.119,511.805C446.449,513.033 449.962,508.201 447.458,504.461Z" style="fill:rgb(0,150,148);fill-rule:nonzero;"/>
            <path d="M211.417,95.703L98.66,366.027L290.838,270.576L211.417,95.703Z" style="fill:rgb(0,150,148);fill-rule:nonzero;"/>
            <path d="M232.14,141.332L211.417,95.703L98.66,366.027L148.805,341.121L232.14,141.332Z" style="fill:rgb(0,130,129);fill-rule:nonzero;"/>
        </g>
        <g transform="matrix(13.6806,0,0,24.0377,-30144.2,-18107.7)">
            <text x="2469.34px" y="783.386px" style="font-family:'CMUTypewriter-Regular', 'CMU Typewriter Text', monospace;font-weight:500;font-size:24px;">B<tspan x="2480.5px 2491.66px 2502.82px 2513.98px " y="783.386px 783.386px 783.386px 783.386px ">uddy</tspan></text>
        </g>
        <g transform="matrix(13.6806,0,0,24.0377,-30712.6,-18191.7)">
            <text x="2469.34px" y="783.386px" style="font-family:'CMUTypewriter-Regular', 'CMU Typewriter Text', monospace;font-weight:500;font-size:24px;">L</text>
            <text x="2475.58px" y="779.251px" style="font-family:'CMUTypewriter-Regular', 'CMU Typewriter Text', monospace;font-weight:500;font-size:17.654px;">A</text>
            <text x="2482.2px" y="783.386px" style="font-family:'CMUTypewriter-Regular', 'CMU Typewriter Text', monospace;font-weight:500;font-size:24px;">T</text>
            <text x="2491.2px" y="786.885px" style="font-family:'CMUTypewriter-Regular', 'CMU Typewriter Text', monospace;font-weight:500;font-size:24px;">E</text>
            <text x="2500.2px" y="783.386px" style="font-family:'CMUTypewriter-Regular', 'CMU Typewriter Text', monospace;font-weight:500;font-size:24px;">X</text>
        </g>
    </g>
    <g id="Palette" transform="matrix(0.117187,0,0,1.08,-396.562,0)">
        <rect x="3384" y="0" width="2048" height="1000" style="fill:none;"/>
        <clipPath id="_clip1">
            <rect x="3384" y="0" width="2048" height="1000"/>
        </clipPath>
        <g clip-path="url(#_clip1)">
            <g transform="matrix(8.35832,0,0,2.07853,3305.9,130.137)">
                <rect x="9.344" y="26.484" width="245.025" height="106.913" style="fill:rgb(0,130,129);"/>
            </g>
            <g transform="matrix(8.35832,0,0,0.866052,3305.9,384.471)">
                <rect x="9.344" y="26.484" width="245.025" height="106.913" style="fill:rgb(0,150,148);"/>
            </g>
            <g transform="matrix(8.35832,0,0,0.866052,3305.9,477.063)">
                <rect x="9.344" y="26.484" width="245.025" height="106.913" style="fill:rgb(0,189,187);"/>
            </g>
            <g transform="matrix(8.35832,0,0,0.866052,3305.9,69.6557)">
                <rect x="9.344" y="26.484" width="245.025" height="106.913" style="fill:rgb(0,110,110);"/>
            </g>
            <g transform="matrix(8.35832,0,0,0.866052,3305.9,-22.9369)">
                <rect x="9.344" y="26.484" width="245.025" height="106.913" style="fill:rgb(0,90,91);"/>
            </g>
        </g>
    </g>
</svg>
