<svg viewBox="0 0 1080 1080" xmlns="http://www.w3.org/2000/svg"><path d="M854.865 441.14 894 575.311c1.967 6.745-5.91 12.02-11.398 7.63l-67.224-53.498z" fill="#005a5b"/><path d="m306.147 160.168 273.791 141.477v15.254L469.563 557.4l-7.72 4.273L296.22 169.354c-2.617-6.197 3.95-12.275 9.927-9.186z" fill="#00bdbb"/><path d="m319.334 224.106-23.114-54.75c-2.617-6.198 3.951-12.275 9.927-9.187l273.791 141.476v15.254l-25.605 55.791z" fill="#009694"/><path d="m461.842 561.674 13.848-4.402 260.67 131.101 11.244 15.233-362.892 98.09z" fill="#008281"/><path d="m446.082 610.718 15.76-49.044 13.848-4.402 260.67 131.101 11.244 15.233-75.99 20.54z" fill="#006e6e"/><path d="M703.19 443.817a7.193 7.193 0 0 1 5.6-2.678h146.075L747.603 703.606 655.3 502.625z" fill="#008281"/><path d="M794.43 441.14h60.435L747.603 703.605l-31.978-69.63z" fill="#006e6e"/><path d="m228.955 909.451 232.887-347.777-89.915 316.841a7.187 7.187 0 0 1-4.956 4.955l-130.078 36.902c-6.438 1.826-11.662-5.36-7.938-10.92zm350.983-607.806 167.665 401.96-285.76-141.931z" fill="#009694"/><path d="m549.124 369.493 30.814-67.848 167.665 401.96-74.563-37.034z" fill="#008281"/></svg>